<svg xmlns="http://www.w3.org/2000/svg" viewBox="0 0 1792 1792">
  <path d="M407.17 596.17v1156.2h-385V596.17zm24.5-357q1.167 85.167-58.917 142.33-60.083 57.167-158.08 57.167h-2.333q-95.667 0-154-57.167T.007 239.17q0-86.333 60.083-142.92 60.083-56.583 156.92-56.583T372.18 96.25q58.333 56.583 59.5 142.92zm1360.3 850.5v662.67h-383.83v-618.33q0-122.5-47.25-191.92-47.25-69.417-147.58-69.417-73.5 0-123.08 40.25t-74.083 99.75q-12.833 35-12.833 94.5v645.17h-383.83q2.333-465.5 2.333-754.83 0-289.33-1.166-345.33l-1.167-56h383.83v168h-2.333q23.333-37.333 47.833-65.333t65.917-60.667 101.5-50.75 133.58-18.083q199.5 0 320.83 132.42 121.33 132.42 121.33 387.92z"/>
</svg>
