<svg xmlns="http://www.w3.org/2000/svg" viewBox="0 0 80 80">
  <path d="M39.468 2.098c-1.604 0-2.85 1.179-2.85 2.697s1.248 2.7 2.85 2.7c1.513 0 2.848-1.182 2.848-2.7s-1.246-2.697-2.848-2.697zm0 1.18c.889 0 1.602.674 1.602 1.517s-.712 1.52-1.602 1.52-1.603-.677-1.603-1.52.713-1.518 1.603-1.518zm-2.85 4.3c-.712.084-1.245.506-1.423 1.096l-1.78 5.228c-.178.421-.088.842.09 1.18.18.421.534.674.979.758a2.054 2.054 0 0 0 1.246-.168c0-.085.088-.084.177-.168v2.783c-.089 0-.177.084-.265.084-1.78.674-2.76 1.854-2.76 3.203 0 1.096.711 2.024 1.78 2.7L14.19 40.208c-.356-.084-.712-.251-1.068-.335V35.32c.178.252.446.42.713.59a1.88 1.88 0 0 0 1.514.168c1.068-.337 1.6-1.35 1.334-2.362l-2.315-7.166c-.178-.76-.888-1.265-1.69-1.35H4.935c-.8.085-1.424.59-1.69 1.348L.84 33.633c-.355 1.012.267 2.109 1.334 2.364a1.881 1.881 0 0 0 1.513-.17c.267-.084.446-.253.624-.506v4.47c-2.76.675-4.184 2.698-4.184 4.384 0 2.867 3.739 5.06 8.545 5.058 1.69 0 3.202-.253 4.537-.758l17.178 16.78c-2.314 1.431-3.56 3.54-3.56 5.312 0 4.13 5.518 7.336 12.638 7.336s12.64-3.205 12.64-7.336c0-2.024-1.337-4.3-4.274-5.65l19.402-16.358c1.246.337 2.58.59 4.094.59 4.806 0 8.545-2.193 8.545-5.06 0-1.771-1.603-3.456-4.184-4.215v-4.555a1.91 1.91 0 0 0 2.137.76c1.068-.337 1.6-1.35 1.334-2.361l-2.313-7.166c-.178-.76-.89-1.266-1.691-1.35h-7.742c-.801.084-1.425.589-1.692 1.348l-2.58 7.252c-.355 1.01.266 2.108 1.334 2.361.801.253 1.692-.084 2.137-.674v4.47c-.445.168-.89.336-1.246.505l-21.54-16.021c1.158-.674 1.872-1.685 1.872-2.781 0-1.35-.98-2.53-2.76-3.205-.089-.084-.177-.084-.267-.084v-2.784c.445.254.98.422 1.513.254.445-.17.8-.421.979-.76.268-.336.267-.757.177-1.18l-1.69-5.228c-.179-.59-.8-1.011-1.423-1.095zm0 1.096h5.34c.178 0 .268.085.358.254l1.69 5.312c.09.085.09.168 0 .252 0 .085-.089.17-.179.17a.494.494 0 0 1-.445-.254l-.71-2.191c-.09-.253-.358-.422-.714-.422-.267 0-.533.253-.533.59v8.937c0 .253-.447.506-.803.506s-.71-.167-.71-.42v-5.566c0-.337-.268-.59-.624-.59s-.623.253-.623.59v5.566c0 .253-.357.42-.713.42s-.71-.252-.71-.504v-8.771c0-.337-.268-.59-.713-.59-.356 0-.621.169-.711.422l-.713 2.023c0 .084-.088.085-.178.17h-.268c-.088 0-.087-.086-.177-.17v-.252l1.78-5.228c.09-.17.267-.254.356-.254zM8.763 17.949c-2.048 0-3.65 1.52-3.65 3.46 0 1.938 1.601 3.456 3.648 3.456s3.649-1.519 3.649-3.459c0-1.939-1.6-3.457-3.647-3.457zm62.477.002c-2.047 0-3.648 1.517-3.648 3.457s1.6 3.457 3.647 3.457c2.047 0 3.65-1.517 3.65-3.457s-1.601-3.457-3.648-3.457zM8.761 19.215c1.335 0 2.403.927 2.403 2.277 0 1.265-1.068 2.276-2.403 2.276S6.36 22.672 6.36 21.492c0-1.265 1.156-2.277 2.402-2.277zm62.477 0h.002c1.335 0 2.403.927 2.403 2.277 0 1.265-1.068 2.277-2.403 2.277s-2.404-1.097-2.404-2.277c0-1.265 1.157-2.277 2.402-2.277zm-28.479.336c1.068.506 1.78 1.266 1.78 2.025 0 1.434-2.314 2.698-5.162 2.698s-5.16-1.18-5.16-2.698c0-.759.622-1.517 1.779-2.023v1.685c0 1.096 1.068 1.77 2.047 1.77.445 0 .978-.168 1.334-.42.356.252.89.42 1.335.42.98 0 2.047-.758 2.047-1.77zm-6.851 5.314c.978.421 2.134.59 3.469.59 1.246 0 2.403-.169 3.382-.506l21.627 16.104c-1.157.844-1.779 1.941-1.779 3.121 0 1.603 1.245 3.036 3.203 3.963l-19.313 16.36c-.178 0-.446-.087-.713-.17V55.81l.18.676c.355 1.01 1.423 1.77 2.58 1.77.178 0 .446 0 .713-.085 1.424-.422 2.224-1.772 1.78-3.121l-3.471-10.877c-.267-.927-1.247-1.685-2.315-1.77h-11.48c-1.068.084-2.046.758-2.312 1.77l-3.65 10.877c-.446 1.349.356 2.7 1.78 3.121.178.084.445.084.713.084 1.156 0 2.224-.76 2.58-1.855l.178-.506v8.347c-.533.168-1.069.336-1.514.506l-17.09-16.865c1.691-.927 2.76-2.275 2.76-3.793 0-1.012-.622-2.277-1.957-3.205zM5.2 26.383h7.3c.267.084.534.253.623.506l2.314 7.166c0 .168 0 .339-.09.508-.089.168-.267.252-.445.336-.356.168-.799-.084-.889-.422l-1.068-3.036a.67.67 0 0 0-.623-.421h-.09c-.267 0-.533.252-.533.59v12.058c0 .506-.535.928-1.158.928-.534 0-1.244-.423-1.244-.928v-7.59c0-.336-.268-.59-.624-.59s-.623.254-.623.59v7.59c0 .506-.712.928-1.246.928-.623 0-1.246-.423-1.246-.928V31.78c0-.253-.268-.505-.535-.59-.356 0-.62.168-.71.42l-.714 2.784c-.089.422-.534.59-.89.506-.178-.084-.356-.168-.444-.336-.09-.17-.179-.34-.09-.508l2.403-7.166c.089-.338.356-.506.623-.506zm62.39 0h7.298c.267.084.534.255.623.508l2.314 7.166c.178.337-.09.76-.445.843-.356.169-.8-.083-.89-.421l.001-.002-.98-3.036c-.09-.253-.355-.505-.711-.421-.267 0-.535.252-.535.59v12.058c0 .422-.711.928-1.334.928-.623 0-1.158-.506-1.158-1.012v-7.587c0-.337-.268-.59-.624-.59s-.623.253-.623.59v7.587c0 .506-.623 1.012-1.246 1.012s-1.246-.506-1.246-.926V31.78c0-.254-.266-.507-.533-.59-.356 0-.623.168-.713.421l-.889 2.784c-.089.422-.534.59-.89.505-.355-.084-.534-.506-.445-.843l2.404-7.166c.089-.338.356-.508.623-.508zM39.558 32.03v.002c-2.848 0-5.162 2.19-5.162 4.889 0 2.698 2.314 4.89 5.162 4.89s5.162-2.107 5.162-4.89c0-2.698-2.225-4.89-5.162-4.89zm0 1.18c2.225 0 3.916 1.604 3.916 3.71 0 2.11-1.691 3.71-3.916 3.71-2.136 0-3.916-1.685-3.916-3.71 0-2.022 1.78-3.71 3.916-3.71zm27.232 7.844v2.613c0 1.181 1.335 2.11 2.492 2.11a2.79 2.79 0 0 0 1.871-.758c.444.42 1.066.758 1.78.758 1.244 0 2.58-.844 2.58-2.108v-2.53c2.046.675 2.937 1.94 2.937 2.95 0 2.109-3.294 3.879-7.299 3.879s-7.297-1.687-7.297-3.879c0-1.265 1.156-2.36 2.936-3.035zm-62.477.082v2.615c0 1.265 1.335 2.107 2.492 2.107a2.79 2.79 0 0 0 1.87-.76c.533.423 1.244.76 1.956.76 1.246 0 2.404-.927 2.404-2.107v-2.615c.266.084.532.169.8.338h.09c1.423.675 2.046 1.771 2.046 2.613 0 2.11-3.292 3.879-7.297 3.879s-7.299-1.687-7.299-3.795c0-1.095 1.069-2.445 2.938-3.035zm29.637 2.445h11.037c.534 0 1.068.422 1.246.928l3.47 10.877c.178.674-.266 1.434-.978 1.603-.71.17-1.513-.252-1.691-.927l-1.514-4.555c-.089-.253-.355-.42-.711-.42-.267 0-.535.252-.535.59v18.299c0 .927-.8 1.685-1.78 1.685-.978 0-1.779-.758-1.779-1.685v-11.47c0-.674-.535-1.263-1.336-1.263l-.002-.002c-.8 0-1.423.59-1.423 1.266v11.47c0 .928-.8 1.686-1.78 1.686-.979 0-1.779-.758-1.779-1.685V52.016c0-.253-.268-.508-.535-.592-.356 0-.621.169-.711.422l-1.424 4.217c-.178.675-.98 1.096-1.691.927-.802-.169-1.157-.928-.979-1.603l3.649-10.877c.178-.506.623-.928 1.246-.928zm5.25 14.863c.044 0 .09.02.09.063V70.06c0 1.6 1.425 2.95 3.115 2.95 1.69 0 3.115-1.348 3.115-2.95v-4.555c3.471 1.012 5.072 3.29 5.072 5.144 0 3.457-4.982 6.157-11.303 6.157-6.319 0-11.303-2.7-11.303-6.157 0-1.939 1.869-4.216 4.895-5.228v4.555c0 1.602 1.425 2.949 3.115 2.949 1.691 0 3.115-1.347 3.115-2.95V58.509c0-.042.044-.063.088-.063z"/>
</svg>
