<svg xmlns="http://www.w3.org/2000/svg" viewBox="0 0 48 48">
  <path d="M19.207 45.696H.012V25.014c-.09-2.974.315-5.768 1.217-8.381.99-2.613 2.343-4.911 4.055-6.894a21.316 21.316 0 0 1 6.083-4.866 21.719 21.719 0 0 1 7.84-2.569v8.922c-3.425 1.171-5.768 2.929-7.03 5.272-1.26 2.253-1.892 5.046-1.892 8.38h8.922zm28.793 0H28.805V25.014c-.09-2.974.315-5.768 1.217-8.381.99-2.613 2.343-4.911 4.055-6.894a21.316 21.316 0 0 1 6.083-4.866A21.719 21.719 0 0 1 48 2.304v8.922c-3.424 1.171-5.767 2.929-7.03 5.272-1.26 2.253-1.892 5.046-1.892 8.38H48z"/>
</svg>
