<svg xmlns="http://www.w3.org/2000/svg" viewBox="0 -960 960 960">
  <path d="M45.648-59.655q-12.879 0-23.133-6.296T6.565-82.548Q.64-92.775.047-104.709q-.593-11.933 6.44-23.637l433.65-749.09q7.032-11.704 17.601-17.305 10.57-5.603 22.26-5.603t22.26 5.603q10.57 5.6 17.602 17.305l433.65 749.09q7.033 11.704 6.44 23.637t-6.518 22.162q-5.697 10.3-15.95 16.596-10.254 6.296-23.133 6.296zm51.9-75.983h764.91l-382.45-658.53zm382.45-60.398q17.389 0 29.151-11.762t11.762-29.151-11.762-29.151q-11.762-11.762-29.151-11.762T450.847-266.1q-11.762 11.762-11.762 29.151t11.762 29.151q11.762 11.762 29.151 11.762zm.017-132.48q16.154 0 27.064-10.923t10.91-27.068v-177.3q0-16.147-10.926-27.068-10.928-10.923-27.081-10.923-16.154 0-27.064 10.923-10.91 10.921-10.91 27.068v177.3q0 16.145 10.926 27.068 10.927 10.923 27.08 10.923z"/>
</svg>
