<svg xmlns="http://www.w3.org/2000/svg" viewBox="0 0 16 16">
  <path d="M16 5.07c-.005 1.13-.327 2.077-.858 2.962-.572.955-1.303 1.787-2.078 2.584-.95.975-1.967 1.877-3.015 2.748-.641.532-1.277 1.072-1.914 1.61-.134.113-.132.113-.262.003-.885-.745-1.777-1.482-2.654-2.235-1.248-1.071-2.444-2.194-3.482-3.47C1.21 8.626.749 7.94.425 7.17.12 6.442-.053 5.682.015 4.897.162 3.216 1.024 2 2.58 1.293a3.985 3.985 0 0 1 2.152-.32c1.393.167 2.451.841 3.197 2.003.054.083.084.097.142.003a4.169 4.169 0 0 1 1.93-1.674A4.234 4.234 0 0 1 12.178.97a4.26 4.26 0 0 1 2.114.819 4.137 4.137 0 0 1 1.469 1.98c.16.45.237.914.24 1.3z"/>
</svg>
