<svg xmlns="http://www.w3.org/2000/svg" fill="none" viewBox="0 0 23 23">
  <path fill="#1E4B99" fill-rule="evenodd" d="m21.154 22.967 1.813-1.813-4.041-4.068a10.45 10.45 0 0 0 2.244-6.501A10.58 10.58 0 0 0 10.585 0 10.58 10.58 0 0 0 0 10.585 10.58 10.58 0 0 0 10.585 21.17a10.45 10.45 0 0 0 6.501-2.244l4.068 4.04ZM9.339.57Zm7.778 17.688 4.036 4.009-4.036-4.01ZM2.583 10.585c0-4.4 3.602-8.002 8.002-8.002s8.002 3.602 8.002 8.002-3.602 8.002-8.002 8.002-8.002-3.602-8.002-8.002ZM9.54 2.152a8.487 8.487 0 0 1 1.045-.064c4.673 0 8.497 3.824 8.497 8.497 0 4.162-3.033 7.65-6.998 8.363 3.965-.713 6.998-4.2 6.998-8.363 0-4.673-3.824-8.497-8.497-8.497-.354 0-.702.022-1.045.064Z" clip-rule="evenodd"/>
</svg>
