<svg xmlns="http://www.w3.org/2000/svg" fill="none" viewBox="0 0 39 33">
  <g stroke="#000" stroke-width="1.25" clip-path="url(#a)">
    <path stroke-linecap="round" stroke-linejoin="round" d="M19.484 27.643a2.105 2.105 0 1 0 0-4.21 2.105 2.105 0 0 0 0 4.21Zm1.473-6.457h0l1.375-7.543A1.393 1.393 0 0 0 20.962 12h-2.955c-.87 0-1.527.787-1.37 1.643l1.374 7.543"/>
    <path d="M16.592 3.164c1.306-2.215 4.51-2.215 5.816 0l14.217 24.122c1.326 2.25-.296 5.089-2.908 5.089H5.283c-2.612 0-4.234-2.839-2.908-5.089L16.592 3.164Z"/>
  </g>
  <defs>
    <clipPath id="a">
      <path fill="#fff" d="M0 0h39v33H0z"/>
    </clipPath>
  </defs>
</svg>
