<svg xmlns="http://www.w3.org/2000/svg" fill="none" viewBox="0 0 18 13">
  <path fill="#000" d="M2.106 0h13.786c.038.006.075.015.113.019.338.036.66.134.96.31.109.065.11.084.013.175l-.035.031C14.477 2.767 12.01 4.997 9.545 7.23c-.353.319-.738.319-1.091 0L2.768 2.085 1.028.512C.92.412.922.396 1.045.324c.183-.107.377-.182.577-.238.16-.045.324-.054.485-.086ZM0 11.119V1.883c.05-.34.157-.652.348-.93C.415.857.461.85.548.928c2.01 1.823 4.024 3.643 6.036 5.463.12.11.12.11 0 .219L.555 12.064c-.116.104-.12.103-.212-.027A2.092 2.092 0 0 1 0 11.119Z"/>
  <path fill="#000" d="M8.995 13H2.32a2.48 2.48 0 0 1-1.25-.307c-.157-.09-.159-.1-.024-.223l4.97-4.495c.351-.317.703-.631 1.05-.952.08-.073.135-.077.215-.002.238.223.482.437.723.655a1.458 1.458 0 0 0 1.993-.004c.235-.214.474-.423.705-.641.085-.08.145-.083.234-.002.833.759 1.67 1.513 2.505 2.27l3.496 3.162.044.04c.093.088.092.106-.011.167-.3.178-.62.28-.96.311-.17.017-.342.02-.514.02H8.995ZM18 6.495v4.416c0 .42-.115.797-.347 1.131-.085.124-.094.126-.204.025l-3.497-3.161-2.533-2.293c-.124-.112-.124-.113.001-.227L17.422.955c.143-.13.144-.129.252.034.216.325.326.687.325 1.09v4.415Z"/>
</svg>