<svg xmlns="http://www.w3.org/2000/svg" viewBox="0 0 15 11">
  <path d="M7.5 11a.984.984 0 0 1-.75-.33 1.142 1.142 0 0 1-.306-.807c0-.318.102-.587.306-.808a.98.98 0 0 1 .75-.33c.296.001.546.111.75.33.204.22.306.489.306.808 0 .318-.102.588-.306.807a.984.984 0 0 1-.75.33ZM3.62 7.25l-.702-.764A6.608 6.608 0 0 1 4.981 4.98a5.88 5.88 0 0 1 2.521-.545c.902 0 1.742.183 2.52.547a6.586 6.586 0 0 1 2.06 1.513l-.703.757a5.568 5.568 0 0 0-1.75-1.275A4.996 4.996 0 0 0 7.5 5.514c-.755 0-1.465.154-2.129.462a5.569 5.569 0 0 0-1.75 1.275ZM.703 4.11 0 3.352A10.767 10.767 0 0 1 3.347.9C4.623.3 6.007 0 7.5 0c1.493.001 2.877.302 4.153.901A10.71 10.71 0 0 1 15 3.354l-.702.755a9.68 9.68 0 0 0-3.064-2.226A8.816 8.816 0 0 0 7.5 1.08a8.781 8.781 0 0 0-3.733.804A9.728 9.728 0 0 0 .702 4.11Z"/>
</svg>