<svg xmlns="http://www.w3.org/2000/svg" fill="none" viewBox="0 0 18 18">
  <path fill="#000" d="M0 4.251c.049-.337.065-.677.156-1.01C.388 2.396.79 1.642 1.339.963a1.997 1.997 0 0 1 1-.675 7.862 7.862 0 0 1 1.326-.28c.298-.036.536.05.704.318.37.593.682 1.219 1.024 1.828.295.525.595 1.046.931 1.546.373.555.338.832-.116 1.325-.405.44-.906.768-1.352 1.16-.675.592-.708.8-.257 1.575.558.959 1.14 1.898 1.878 2.734.924 1.048 2.006 1.896 3.21 2.591.347.2.679.426 1.05.587.288.124.517.05.73-.146.27-.248.512-.519.731-.81.273-.365.57-.706.91-1.009.363-.323.623-.374 1.025-.109 1.081.712 2.23 1.303 3.355 1.938.25.141.483.3.512.626v.133c-.026.176-.055.35-.077.527-.13 1.038-.61 1.827-1.545 2.35-.7.39-1.418.699-2.21.828h-1.114a11.108 11.108 0 0 1-1.837-.52c-1.007-.38-2.028-.725-2.957-1.285-1.442-.87-2.679-1.987-3.867-3.171-1.938-1.932-3.279-4.209-4.054-6.83C.172 5.63.036 5.065 0 4.475v-.223Z"/>
</svg>