<svg xmlns="http://www.w3.org/2000/svg" viewBox="0 0 23 23">
  <path d="m21.393 22.308-8.545-8.525a7.504 7.504 0 0 1-2.354 1.346 7.884 7.884 0 0 1-2.675.476c-2.185 0-4.034-.754-5.548-2.264C.757 11.831 0 9.986 0 7.807c0-2.18.756-4.025 2.268-5.537C3.781.757 5.629 0 7.814 0s4.035.755 5.551 2.266c1.516 1.51 2.274 3.356 2.274 5.537a7.68 7.68 0 0 1-.504 2.746c-.337.885-.778 1.642-1.324 2.27l8.546 8.525-.964.964ZM7.82 14.243c1.81 0 3.34-.622 4.587-1.866 1.246-1.243 1.87-2.768 1.87-4.576 0-1.806-.624-3.33-1.87-4.574C11.159 1.983 9.63 1.362 7.82 1.362s-3.34.621-4.587 1.865C1.988 4.47 1.364 5.995 1.364 7.8c0 1.807.624 3.332 1.87 4.575C4.48 13.62 6.01 14.243 7.82 14.243Z"/>
</svg>