<svg xmlns="http://www.w3.org/2000/svg" fill="none" viewBox="0 0 24 22">
  <path d="M12 9.8c-1.087-2.114-4.046-6.053-6.798-7.995C2.566-.056 1.561.265.902.565.139.908 0 2.08 0 2.768c0 .69.378 5.65.624 6.479.815 2.736 3.713 3.66 6.383 3.364.136-.02.275-.04.415-.056-.138.021-.276.04-.415.056-3.912.58-7.387 2.005-2.83 7.078 5.013 5.19 6.87-1.113 7.823-4.309.953 3.196 2.05 9.271 7.733 4.309 4.267-4.309 1.172-6.498-2.74-7.079a8.648 8.648 0 0 1-.415-.055c.14.017.279.036.415.056 2.67.296 5.568-.629 6.383-3.364.246-.828.624-5.79.624-6.478 0-.69-.139-1.861-.902-2.206-.659-.298-1.664-.62-4.3 1.24C16.046 3.748 13.087 7.687 12 9.8Z"/>
</svg>