<svg xmlns="http://www.w3.org/2000/svg" viewBox="0 0 33 32">
  <path d="M23.594.167H9.404C4.587.167.667 4.087.667 8.906v14.189c0 4.819 3.92 8.739 8.739 8.739h14.189c4.819 0 8.739-3.92 8.739-8.74V8.907c0-4.819-3.92-8.739-8.74-8.739Zm0 2.81c3.27 0 5.93 2.66 5.93 5.929v14.189c0 3.27-2.66 5.929-5.93 5.929H9.404a5.936 5.936 0 0 1-5.928-5.93V8.907c0-3.27 2.66-5.93 5.929-5.93h14.189Zm-7.095 4.73c-4.573 0-8.293 3.72-8.293 8.293 0 4.574 3.72 8.294 8.293 8.294 4.574 0 8.294-3.72 8.294-8.294 0-4.573-3.72-8.293-8.294-8.293Zm0 2.855A5.444 5.444 0 0 1 21.937 16a5.444 5.444 0 0 1-5.438 5.438A5.444 5.444 0 0 1 11.061 16a5.444 5.444 0 0 1 5.438-5.438Zm9.048-5.871c-.594 0-1.178.24-1.598.662a2.273 2.273 0 0 0-.664 1.6c0 .594.243 1.178.664 1.6a2.28 2.28 0 0 0 1.598.662c.596 0 1.178-.243 1.6-.663a2.279 2.279 0 0 0 .662-1.6c0-.596-.24-1.18-.662-1.6a2.272 2.272 0 0 0-1.6-.661Z"/>
</svg>