<svg width="24" height="6" viewBox="0 0 24 6" fill="none" xmlns="http://www.w3.org/2000/svg">
<path d="M2.47615 5.47619C1.7952 5.47619 1.21233 5.23366 0.727547 4.7486C0.242491 4.26382 -3.8147e-05 3.68095 -3.8147e-05 3C-3.8147e-05 2.31905 0.242491 1.73619 0.727547 1.2514C1.21233 0.766348 1.7952 0.523819 2.47615 0.523819C3.1571 0.523819 3.7401 0.766348 4.22516 1.2514C4.70994 1.73619 4.95233 2.31905 4.95233 3C4.95233 3.68095 4.70994 4.26382 4.22516 4.7486C3.7401 5.23366 3.1571 5.47619 2.47615 5.47619ZM12 5.47619C11.319 5.47619 10.7361 5.23366 10.2514 4.7486C9.76631 4.26382 9.52378 3.68095 9.52378 3C9.52378 2.31905 9.76631 1.73619 10.2514 1.2514C10.7361 0.766348 11.319 0.523819 12 0.523819C12.6809 0.523819 13.2638 0.766348 13.7486 1.2514C14.2336 1.73619 14.4761 2.31905 14.4761 3C14.4761 3.68095 14.2336 4.26382 13.7486 4.7486C13.2638 5.23366 12.6809 5.47619 12 5.47619ZM21.5238 5.47619C20.8428 5.47619 20.2598 5.23366 19.7748 4.7486C19.29 4.26382 19.0476 3.68095 19.0476 3C19.0476 2.31905 19.29 1.73619 19.7748 1.2514C20.2598 0.766348 20.8428 0.523819 21.5238 0.523819C22.2047 0.523819 22.7876 0.766348 23.2724 1.2514C23.7574 1.73619 24 2.31905 24 3C24 3.68095 23.7574 4.26382 23.2724 4.7486C22.7876 5.23366 22.2047 5.47619 21.5238 5.47619Z" fill="black"/>
</svg>
