<svg xmlns="http://www.w3.org/2000/svg" fill="none" viewBox="0 0 24 23">
  <path fill="#000" d="M12.003.3c-1.318 0-2.512.835-3.363 2.35L.713 16.768c-.846 1.51-.94 2.977-.264 4.136.674 1.157 2 1.796 3.728 1.796h15.648c1.73 0 3.054-.639 3.73-1.796.676-1.158.581-2.627-.266-4.136L15.363 2.65C14.513 1.135 13.319.3 12.003.3ZM12 2.15c.612 0 1.251.512 1.752 1.406l7.928 14.118c.506.9.608 1.737.282 2.297h-.001c-.328.56-1.104.88-2.136.88H4.178c-1.032 0-1.812-.32-2.138-.88-.328-.56-.224-1.398.28-2.296l7.926-14.12C10.75 2.661 11.388 2.15 12 2.15Zm.4 5.35c-.662 0-1.2.553-1.2 1.234 0 .037.007.07.01.104h-.005l.478 5.982h.003c.03.378.337.68.714.68.377 0 .683-.3.715-.68h.004l.478-5.981h-.007c.004-.035.01-.067.01-.104 0-.682-.538-1.235-1.2-1.235Zm0 8.8a1.2 1.2 0 1 0 0 2.4 1.2 1.2 0 0 0 0-2.4Z"/>
</svg>