<svg xmlns="http://www.w3.org/2000/svg" width="20" height="18" fill="none" viewBox="0 0 20 18"><path fill="#003DA5" fill-rule="evenodd" d="M4.76 16.692c0 .317-.29.574-.646.574h-2.75c-.356 0-.645-.257-.645-.574V6.45c0-.317.29-.574.646-.574h2.75c.356 0 .645.257.645.574v10.243ZM2.74 4.91c-1.443 0-2.612-1.04-2.612-2.321C.128 1.305 1.298.266 2.74.266c1.442 0 2.611 1.04 2.611 2.322S4.182 4.909 2.74 4.909Zm16.388 11.83c0 .29-.266.527-.594.527h-2.95c-.328 0-.594-.236-.594-.528v-4.804c0-.717.236-3.141-2.108-3.141-1.818 0-2.187 1.659-2.26 2.404v5.541c0 .292-.267.528-.595.528H7.175c-.328 0-.594-.236-.594-.528V6.402c0-.291.266-.527.594-.527h2.853c.328 0 .594.236.594.527v.894c.675-.9 1.676-1.593 3.81-1.593 4.724 0 4.697 3.922 4.697 6.078v4.957Z" clip-rule="evenodd"/></svg>