<svg xmlns="http://www.w3.org/2000/svg" fill="none" viewBox="0 0 18 21">
  <path fill="#1D9CD3" d="M9.032 0c2.393.01 4.68.956 6.353 2.615A8.783 8.783 0 0 1 18 8.885v.052c-.064 3.181-1.864 6.111-4.108 8.4a23.384 23.384 0 0 1-4.214 3.403 1.113 1.113 0 0 1-1.43 0 23.222 23.222 0 0 1-5.918-5.47A11.291 11.291 0 0 1 0 8.81C.021 3.928 4.066-.01 9.032 0Zm0 6.227c-1.578 0-2.849 1.25-2.849 2.804 0 1.534 1.25 2.772 2.817 2.793h.032c.751 0 1.471-.283 2-.798a2.78 2.78 0 0 0 .86-1.995c0-1.554-1.283-2.804-2.86-2.804Z"/>
</svg>
